<mxfile host="app.diagrams.net" modified="2021-09-21T05:08:21.066Z" agent="5.0 (Windows NT 10.0; Win64; x64) AppleWebKit/537.36 (KHTML, like Gecko) Chrome/93.0.4577.82 Safari/537.36" etag="2T-lX_WeEjNRBm47l3L_" version="15.2.9" type="github">
  <diagram id="z0OCnNs4YIlH32N7s1D4" name="Page-1">
    <mxGraphModel dx="1449" dy="626" grid="1" gridSize="10" guides="1" tooltips="1" connect="1" arrows="1" fold="1" page="1" pageScale="1" pageWidth="850" pageHeight="1100" math="0" shadow="0">
      <root>
        <mxCell id="0" />
        <mxCell id="1" parent="0" />
        <mxCell id="PuWquGTZmy3J3siG5oWM-1" value="" style="rounded=0;whiteSpace=wrap;html=1;" vertex="1" parent="1">
          <mxGeometry x="100" y="220" width="340" height="280" as="geometry" />
        </mxCell>
        <mxCell id="PuWquGTZmy3J3siG5oWM-3" value="room1" style="rounded=1;whiteSpace=wrap;html=1;" vertex="1" parent="1">
          <mxGeometry x="170" y="250" width="180" height="60" as="geometry" />
        </mxCell>
        <mxCell id="PuWquGTZmy3J3siG5oWM-4" value="room2" style="rounded=1;whiteSpace=wrap;html=1;" vertex="1" parent="1">
          <mxGeometry x="180" y="340" width="170" height="60" as="geometry" />
        </mxCell>
        <mxCell id="PuWquGTZmy3J3siG5oWM-5" value="kitchen" style="ellipse;whiteSpace=wrap;html=1;" vertex="1" parent="1">
          <mxGeometry x="210" y="410" width="120" height="80" as="geometry" />
        </mxCell>
        <mxCell id="PuWquGTZmy3J3siG5oWM-6" value="hotels" style="text;html=1;strokeColor=none;fillColor=none;align=center;verticalAlign=middle;whiteSpace=wrap;rounded=0;" vertex="1" parent="1">
          <mxGeometry x="220" y="180" width="40" height="20" as="geometry" />
        </mxCell>
        <mxCell id="PuWquGTZmy3J3siG5oWM-7" value="" style="rounded=0;whiteSpace=wrap;html=1;" vertex="1" parent="1">
          <mxGeometry x="550" y="220" width="290" height="310" as="geometry" />
        </mxCell>
        <mxCell id="PuWquGTZmy3J3siG5oWM-8" value="java app1" style="rounded=1;whiteSpace=wrap;html=1;" vertex="1" parent="1">
          <mxGeometry x="620" y="260" width="160" height="60" as="geometry" />
        </mxCell>
        <mxCell id="PuWquGTZmy3J3siG5oWM-9" value="java app2" style="rounded=1;whiteSpace=wrap;html=1;" vertex="1" parent="1">
          <mxGeometry x="620" y="350" width="160" height="60" as="geometry" />
        </mxCell>
        <mxCell id="PuWquGTZmy3J3siG5oWM-10" value="java 1.7&lt;br&gt;java 1.8" style="ellipse;whiteSpace=wrap;html=1;" vertex="1" parent="1">
          <mxGeometry x="640" y="430" width="120" height="80" as="geometry" />
        </mxCell>
        <mxCell id="PuWquGTZmy3J3siG5oWM-11" value="OS" style="text;html=1;strokeColor=none;fillColor=none;align=center;verticalAlign=middle;whiteSpace=wrap;rounded=0;" vertex="1" parent="1">
          <mxGeometry x="675" y="180" width="40" height="20" as="geometry" />
        </mxCell>
        <mxCell id="PuWquGTZmy3J3siG5oWM-13" value="" style="rounded=0;whiteSpace=wrap;html=1;" vertex="1" parent="1">
          <mxGeometry x="110" y="580" width="320" height="270" as="geometry" />
        </mxCell>
        <mxCell id="PuWquGTZmy3J3siG5oWM-14" value="JAVA APP1+JAVA1.7" style="rounded=1;whiteSpace=wrap;html=1;" vertex="1" parent="1">
          <mxGeometry x="170" y="630" width="210" height="60" as="geometry" />
        </mxCell>
        <mxCell id="PuWquGTZmy3J3siG5oWM-15" value="JAVA APP2+JAVA1.8" style="rounded=1;whiteSpace=wrap;html=1;" vertex="1" parent="1">
          <mxGeometry x="180" y="740" width="210" height="60" as="geometry" />
        </mxCell>
        <mxCell id="PuWquGTZmy3J3siG5oWM-16" value="OS" style="text;html=1;strokeColor=none;fillColor=none;align=center;verticalAlign=middle;whiteSpace=wrap;rounded=0;" vertex="1" parent="1">
          <mxGeometry x="240" y="550" width="40" height="20" as="geometry" />
        </mxCell>
        <mxCell id="PuWquGTZmy3J3siG5oWM-17" value="C1" style="text;html=1;strokeColor=none;fillColor=none;align=center;verticalAlign=middle;whiteSpace=wrap;rounded=0;" vertex="1" parent="1">
          <mxGeometry x="120" y="650" width="40" height="20" as="geometry" />
        </mxCell>
        <mxCell id="PuWquGTZmy3J3siG5oWM-18" value="C2" style="text;html=1;strokeColor=none;fillColor=none;align=center;verticalAlign=middle;whiteSpace=wrap;rounded=0;" vertex="1" parent="1">
          <mxGeometry x="120" y="760" width="40" height="20" as="geometry" />
        </mxCell>
      </root>
    </mxGraphModel>
  </diagram>
</mxfile>
